<?xml version="1.0" encoding="utf-8"?>
<!-- Uploaded to: SVG Repo, www.svgrepo.com, Generator: SVG Repo Mixer Tools -->
<svg fill="#000000"  viewBox="0 0 32 32" version="1.1" xmlns="http://www.w3.org/2000/svg">
<title>mine</title>
<path d="M8.934 10.163c-2.921 1.656-4.861 4.743-4.864 8.284v0c0 0.69 0.56 1.25 1.25 1.25s1.25-0.56 1.25-1.25v0c0.002-2.608 1.431-4.881 3.548-6.082l0.035-0.018c0.385-0.218 0.641-0.625 0.641-1.092 0-0.691-0.56-1.25-1.25-1.25-0.224 0-0.434 0.059-0.616 0.162l0.006-0.003zM28.514 3.579h-1.082v-1.082c0-0.69-0.56-1.25-1.25-1.25s-1.25 0.56-1.25 1.25v0 1.082h-1.082c-0 0-0 0-0.001 0-0.69 0-1.249 0.559-1.249 1.249 0 0.513 0.309 0.953 0.751 1.146l0.008 0.003-0.584 0.603-1.73-1.543c-0.22-0.197-0.512-0.318-0.832-0.318-0.407 0-0.769 0.195-0.997 0.497l-0.002 0.003-0.98 1.306c-1.377-0.558-2.974-0.882-4.648-0.882-0.011 0-0.023 0-0.034 0h0.002c-7.063 0.005-12.787 5.731-12.787 12.795 0 7.066 5.728 12.795 12.795 12.795s12.795-5.728 12.795-12.795c0-2.099-0.505-4.079-1.401-5.827l0.034 0.072 1.26-1.18c0.243-0.229 0.395-0.552 0.395-0.912 0-0.37-0.161-0.703-0.417-0.932l-0.001-0.001-1.583-1.412 0.467-0.483c0.211 0.385 0.612 0.642 1.072 0.647h0.001c0.69-0 1.25-0.56 1.25-1.25v-1.082h1.082c0.69 0 1.25-0.56 1.25-1.25s-0.56-1.25-1.25-1.25v0zM13.553 28.75c-0.004 0-0.009 0-0.014 0-5.69 0-10.303-4.613-10.303-10.303s4.613-10.303 10.303-10.303c0.005 0 0.010 0 0.015 0h-0.001c0.008-0 0.018-0 0.028-0 1.641 0 3.191 0.387 4.565 1.075l-0.059-0.027c0.161 0.081 0.351 0.129 0.552 0.129 0.407 0 0.769-0.195 0.997-0.498l0.002-0.003 0.76-1.011 3.145 2.805-0.975 0.913c-0.243 0.229-0.394 0.552-0.394 0.912 0 0.241 0.068 0.466 0.186 0.657l-0.003-0.005c0.942 1.525 1.5 3.375 1.5 5.354 0 5.691-4.612 10.304-10.303 10.305h-0z"></path>
</svg>